<svg xmlns="http://www.w3.org/2000/svg" width="210.109" height="70" viewBox="0 0 210.109 70">
  <g id="Group_56" data-name="Group 56" transform="translate(-262 -115)">
    <g id="Group_21" data-name="Group 21">
      <g id="Group_20" data-name="Group 20">
        <g id="Group_17" data-name="Group 17" transform="translate(255 110)">
          <path id="Path_56" data-name="Path 56" d="M668.437,207.616l25.3,24.963,5.923-6.089V192.1s-12.066.764-20.62,6.107S668.437,207.616,668.437,207.616Z" transform="translate(-660 -170)" fill="#3d3f60"/>
          <path id="Path_57" data-name="Path 57" d="M699.659,207.616l-25.3,24.963-5.923-6.089V192.1s12.066.764,20.62,6.107S699.659,207.616,699.659,207.616Z" transform="translate(-628 -170)" fill="#313453"/>
          <g id="Group_16" data-name="Group 16">
            <g id="logo" transform="translate(2.54 3)">
              <path id="Path_49" data-name="Path 49" d="M30.79,60.87a1,1,0,0,1-.707-.293L4.753,35.247a1,1,0,0,1,0-1.414l31.54-31.54a1,1,0,0,1,1.414,0l31.54,31.54a1,1,0,0,1,0,1.413l-3.39,3.4c-.39.391-1.025-.193-1.416-.583a1.574,1.574,0,0,1,0-1.829l1.685-2.693L37,5.414,7.874,34.54,31.5,58.163a3.372,3.372,0,0,1,.217,2.09,1,1,0,0,1-.924.617Z" fill="#4285f4"/>
              <path id="Path_50" data-name="Path 50" d="M50.47,53.61a1,1,0,0,1-.924-.617,3.372,3.372,0,0,1,.217-2.09l2.8-2.8a2.633,2.633,0,0,1,2.414,0,1,1,0,0,1,0,1.414l-3.8,3.8A1,1,0,0,1,50.47,53.61Z" fill="#4285f4"/>
              <path id="Path_51" data-name="Path 51" d="M43.21,60.87a1,1,0,0,1-.924-.618,3.37,3.37,0,0,1,.218-2.09l2.73-2.72a2.633,2.633,0,0,1,2.414,0,1,1,0,0,1,0,1.414l-3.73,3.72a1,1,0,0,1-.706.292Z" fill="#4285f4"/>
              <path id="Path_52" data-name="Path 52" d="M57.81,46.27c-.4,0-1.769-.244-1.924-.617s.931-1.8,1.217-2.09l3.8-3.8c.39-.391,1.024.609,1.414,1a1,1,0,0,1,0,1.414l-3.8,3.8A1,1,0,0,1,57.81,46.27Z" fill="#4285f4"/>
              <path id="Path_53" data-name="Path 53" d="M53.375,72H20.625a1,1,0,0,1-.738-1.674L36.262,52.4a1.031,1.031,0,0,1,1.476,0L54.113,70.326A1,1,0,0,1,53.375,72ZM23.894,70H50.106L37,55.561Z" fill="#4285f4"/>
              <path id="Path_54" data-name="Path 54" d="M37,54.079a1,1,0,0,1-1-1V3a1,1,0,1,1,2,0V53.079A1,1,0,0,1,37,54.079Z" fill="#4285f4"/>
              <path id="Path_55" data-name="Path 55" d="M62.027,29.028c-.209,0,.587.934.417.812C46,18,29,18,12.556,29.84c-.448.323-1.073-.779-1.4-1.227a1,1,0,0,1,.227-1.4c17-12.237,34.23-12.237,51.226,0a1,1,0,0,1,.366,1.119c-.134.413.482.693-.952.692Z" fill="#4285f4"/>
            </g>
          </g>
        </g>
        <path id="Path_71" data-name="Path 71" d="M29.312-32.838V-11.59q0,5.615-3.392,8.827T16.6.449q-5.93,0-9.175-3.234T4.178-11.68V-32.838H8V-11.41A8.441,8.441,0,0,0,10.242-5.1q2.246,2.2,6.6,2.2a8.739,8.739,0,0,0,6.4-2.212,8.511,8.511,0,0,0,2.246-6.345V-32.838ZM54.288,0V-15.925a6.425,6.425,0,0,0-1.37-4.492,5.582,5.582,0,0,0-4.29-1.482q-3.863,0-5.66,2.089t-1.8,6.9V0H37.442V-24.617h3.032l.606,3.369h.18a7.613,7.613,0,0,1,3.212-2.819,10.436,10.436,0,0,1,4.6-1q4.447,0,6.693,2.145t2.246,6.862V0ZM69.4,0H65.676V-24.617H69.4ZM65.361-31.288a2.477,2.477,0,0,1,.629-1.875,2.2,2.2,0,0,1,1.572-.6,2.2,2.2,0,0,1,1.55.606,2.432,2.432,0,0,1,.651,1.864,2.47,2.47,0,0,1-.651,1.875,2.175,2.175,0,0,1-1.55.618,2.154,2.154,0,0,1-1.572-.618A2.522,2.522,0,0,1,65.361-31.288ZM98.693-23.27a9.2,9.2,0,0,1-3.4,7.67q-3.4,2.684-9.737,2.684H81.69V0H77.872V-32.838h8.513Q98.693-32.838,98.693-23.27Zm-17,7.075h3.437q5.076,0,7.345-1.64T94.74-23.09a5.665,5.665,0,0,0-2.134-4.852q-2.134-1.595-6.648-1.595H81.69Zm34.545-8.872a14.589,14.589,0,0,1,2.942.27l-.517,3.459a12.7,12.7,0,0,0-2.7-.337,6.561,6.561,0,0,0-5.11,2.426,8.845,8.845,0,0,0-2.123,6.042V0H105V-24.617h3.077l.427,4.56h.18a10.821,10.821,0,0,1,3.3-3.706A7.433,7.433,0,0,1,116.235-25.066Zm27.874,12.735q0,6.02-3.032,9.4A10.679,10.679,0,0,1,132.7.449a11.1,11.1,0,0,1-5.862-1.55,10.229,10.229,0,0,1-3.953-4.447,15.5,15.5,0,0,1-1.393-6.783q0-6.02,3.01-9.377a10.644,10.644,0,0,1,8.355-3.358,10.414,10.414,0,0,1,8.209,3.437Q144.109-18.193,144.109-12.331Zm-18.755,0q0,4.717,1.887,7.188a6.549,6.549,0,0,0,5.548,2.471,6.593,6.593,0,0,0,5.559-2.459q1.9-2.459,1.9-7.2,0-4.694-1.9-7.131a6.669,6.669,0,0,0-5.6-2.437,6.563,6.563,0,0,0-5.525,2.4Q125.354-17.093,125.354-12.331Z" transform="translate(328 166)" fill="#4285f4"/>
        <path id="Path_58" data-name="Path 58" d="M2483.022,172.195s3.371,3.9,13.31,0,13.949-2,13.949-2,8.024,1.925,12.361-2.856,7.635-5.172,9.7-4.763,6.635,1.991,10.031-1.417,6.916-5.316,10.522-4.041,5.031,2.065,9.355,0,5.348-1.878,8.267,0,3.628,3.091,7.107,1.7" transform="translate(-2182)" fill="none" stroke="#4285f4" stroke-width="1"/>
      </g>
    </g>
  </g>
</svg>
