<svg xmlns="http://www.w3.org/2000/svg" width="65.079" height="70" viewBox="0 0 65.079 70">
  <g id="Group_38" data-name="Group 38" transform="translate(-416 -190)">
    <path id="Polygon_1" data-name="Polygon 1" d="M14.5,0,29,16H0Z" transform="translate(434 243)" fill="#2da94f"/>
    <path id="Polygon_2" data-name="Polygon 2" d="M20,0,40,18H0Z" transform="translate(429 193)" fill="#3e82f7"/>
    <g id="Group_37" data-name="Group 37" transform="translate(110 147)">
      <g id="Group_21" data-name="Group 21" transform="translate(44 -72)">
        <g id="Group_20" data-name="Group 20">
          <g id="Group_17" data-name="Group 17" transform="translate(255 110)">
            <path id="Path_56" data-name="Path 56" d="M668.437,207.616l25.3,24.963,5.923-6.089V192.1s-12.066.764-20.62,6.107S668.437,207.616,668.437,207.616Z" transform="translate(-660 -170)" fill="#ed412d"/>
            <path id="Path_57" data-name="Path 57" d="M699.659,207.616l-25.3,24.963-5.923-6.089V192.1s12.066.764,20.62,6.107S699.659,207.616,699.659,207.616Z" transform="translate(-628 -170)" fill="#fdbd00"/>
            <g id="Group_16" data-name="Group 16">
              <g id="logo" transform="translate(2.54 3)">
                <path id="Path_49" data-name="Path 49" d="M30.79,60.87a1,1,0,0,1-.707-.293L4.753,35.247a1,1,0,0,1,0-1.414l31.54-31.54a1,1,0,0,1,1.414,0l31.54,31.54a1,1,0,0,1,0,1.413l-3.39,3.4c-.39.391-1.025-.193-1.416-.583a1.574,1.574,0,0,1,0-1.829l1.685-2.693L37,5.414,7.874,34.54,31.5,58.163a3.372,3.372,0,0,1,.217,2.09,1,1,0,0,1-.924.617Z" fill="#fff"/>
                <path id="Path_50" data-name="Path 50" d="M50.47,53.61a1,1,0,0,1-.924-.617,3.372,3.372,0,0,1,.217-2.09l2.8-2.8a2.633,2.633,0,0,1,2.414,0,1,1,0,0,1,0,1.414l-3.8,3.8A1,1,0,0,1,50.47,53.61Z" fill="#fff"/>
                <path id="Path_51" data-name="Path 51" d="M43.21,60.87a1,1,0,0,1-.924-.618,3.37,3.37,0,0,1,.218-2.09l2.73-2.72a2.633,2.633,0,0,1,2.414,0,1,1,0,0,1,0,1.414l-3.73,3.72a1,1,0,0,1-.706.292Z" fill="#fff"/>
                <path id="Path_52" data-name="Path 52" d="M57.81,46.27c-.4,0-1.769-.244-1.924-.617s.931-1.8,1.217-2.09l3.8-3.8c.39-.391,1.024.609,1.414,1a1,1,0,0,1,0,1.414l-3.8,3.8A1,1,0,0,1,57.81,46.27Z" fill="#fff"/>
                <path id="Path_53" data-name="Path 53" d="M53.375,72H20.625a1,1,0,0,1-.738-1.674L36.262,52.4a1.031,1.031,0,0,1,1.476,0L54.113,70.326A1,1,0,0,1,53.375,72ZM23.894,70H50.106L37,55.561Z" fill="#fff"/>
                <path id="Path_54" data-name="Path 54" d="M37,54.079a1,1,0,0,1-1-1V3a1,1,0,1,1,2,0V53.079A1,1,0,0,1,37,54.079Z" fill="#fff"/>
                <path id="Path_55" data-name="Path 55" d="M62.027,29.028c-.209,0,.587.934.417.812C46,18,29,18,12.556,29.84c-.448.323-1.073-.779-1.4-1.227a1,1,0,0,1,.227-1.4c17-12.237,34.23-12.237,51.226,0a1,1,0,0,1,.366,1.119c-.134.413.482.693-.952.692Z" fill="#fff"/>
              </g>
            </g>
          </g>
        </g>
      </g>
    </g>
  </g>
</svg>
