<svg id="line_color" height="512" viewBox="0 0 74 74" width="512" xmlns="http://www.w3.org/2000/svg" data-name="line color"><path d="m70.925 41.283a33.971 33.971 0 1 1 -27.36-36.55 7.107 7.107 0 0 0 1.88 5.75 7.081 7.081 0 0 0 1.15 13.31c.03.01.06.01.09.02a6.041 6.041 0 0 0 4.51 6.34 5.928 5.928 0 0 0 3.24-.07 7.091 7.091 0 0 0 5.1 8.59 7.328 7.328 0 0 0 2.41.19 6.521 6.521 0 0 0 8.98 2.42z" fill="#e7aa6c"/><g fill="#d09865"><path d="m67.458 42.162c-.375-.047-1.305-.148-1.463-.189a6.488 6.488 0 0 1 -4.05-3.11 7.328 7.328 0 0 1 -2.41-.19 7.091 7.091 0 0 1 -5.1-8.59 5.928 5.928 0 0 1 -3.24.07 6.041 6.041 0 0 1 -4.51-6.34c-.03-.01-.06-.01-.09-.02a7.051 7.051 0 0 1 -4.345-10.418 7.071 7.071 0 0 0 1.423 13.168c.03.01.06.01.09.02a6.041 6.041 0 0 0 4.51 6.34 5.928 5.928 0 0 0 3.24-.07 7.091 7.091 0 0 0 5.1 8.59 7.328 7.328 0 0 0 2.41.19 6.464 6.464 0 0 0 7.28 3.1 33.992 33.992 0 0 1 -54.643 15.98 33.992 33.992 0 0 0 59.26-19.41 6.544 6.544 0 0 1 -3.462.879z"/><circle cx="31.328" cy="18.363" r="2.75"/><circle cx="15.078" cy="32.113" r="2.75"/><circle cx="37" cy="40.863" r="2.75"/><circle cx="19.305" cy="52.626" r="2.75"/><circle cx="35.245" cy="60.946" r="2.75"/><circle cx="52.328" cy="49.126" r="2.75"/></g><path d="m64.583 63.446a.5.5 0 0 1 -.395-.808c.187-.239.373-.48.556-.723a.5.5 0 1 1 .8.6q-.28.372-.565.738a.5.5 0 0 1 -.396.193z" fill="#323c6b"/><path d="m54.167 71.476a.5.5 0 0 1 -.229-.944 36.326 36.326 0 0 0 8.462-6.062.5.5 0 0 1 .693.721 37.285 37.285 0 0 1 -8.7 6.229.5.5 0 0 1 -.226.056z" fill="#323c6b"/><path d="m16.968 7.58a.5.5 0 0 1 -.272-.919 37.32 37.32 0 0 1 9.344-4.381.5.5 0 0 1 .295.955 36.347 36.347 0 0 0 -9.095 4.265.494.494 0 0 1 -.272.08z" fill="#323c6b"/><path d="m28.92 2.559a.5.5 0 0 1 -.1-.99c.292-.061.586-.118.88-.173a.507.507 0 0 1 .583.4.5.5 0 0 1 -.4.583c-.288.053-.574.11-.86.169a.522.522 0 0 1 -.103.011z" fill="#323c6b"/><path d="m37.075 72.613a34.5 34.5 0 1 1 6.586-68.371.5.5 0 0 1 .4.553 6.58 6.58 0 0 0 1.748 5.345.5.5 0 0 1 -.157.8 6.581 6.581 0 0 0 1.068 12.369c.014 0 .117.027.13.032a.5.5 0 0 1 .333.514 5.528 5.528 0 0 0 4.139 5.814 5.457 5.457 0 0 0 2.968-.064.5.5 0 0 1 .631.6 6.612 6.612 0 0 0 4.741 7.984 6.812 6.812 0 0 0 2.24.176.5.5 0 0 1 .479.252 6.021 6.021 0 0 0 8.291 2.234.5.5 0 0 1 .751.477 34.307 34.307 0 0 1 -34.348 31.285zm0-68a33.5 33.5 0 1 0 33.257 37.525 7.026 7.026 0 0 1 -8.66-2.756 7.773 7.773 0 0 1 -2.257-.224 7.622 7.622 0 0 1 -5.619-8.41 6.432 6.432 0 0 1 -2.728-.111 6.527 6.527 0 0 1 -4.9-6.452 7.574 7.574 0 0 1 -1.518-13.859 7.568 7.568 0 0 1 -1.626-5.186 33.525 33.525 0 0 0 -5.949-.527z" fill="#323c6b"/><path d="m9.439 49.8a.85.85 0 0 1 -.788-.532 29.639 29.639 0 0 1 -2.16-10.468.85.85 0 0 1 .83-.869h.02a.85.85 0 0 1 .85.831 27.966 27.966 0 0 0 2.037 9.868.85.85 0 0 1 -.789 1.17z" fill="#fff"/><path d="m7.533 35.579a.85.85 0 0 1 -.845-.954c.062-.5.136-.994.218-1.485a.85.85 0 0 1 1.678.279c-.078.468-.15.939-.208 1.413a.85.85 0 0 1 -.843.747z" fill="#fff"/></svg>