<svg id="line_color" height="512" viewBox="0 0 74 74" width="512" xmlns="http://www.w3.org/2000/svg" data-name="line color"><path d="m65.1 40.313-4.961 23.71a5.856 5.856 0 0 1 -5.56 4.877h-37.057a5.856 5.856 0 0 1 -5.56-4.877l-4.962-23.71c18.681-6.173 38.093-5.762 58.1 0z" fill="#e1e6e9"/><path d="m61.32 40.925s-3.329 15.809-4.629 21.839a2.91 2.91 0 0 1 -2.85 2.3h-41.541a5.7 5.7 0 0 0 5.225 3.84h37.054a4.938 4.938 0 0 0 .57-.045l.008-.009a5.911 5.911 0 0 0 4.982-4.822l4.833-23.1z" fill="#d5d6db"/><path d="m22.461 63.476a.5.5 0 0 1 -.491-.407l-3.127-16.448a.5.5 0 1 1 .982-.187l3.127 16.448a.5.5 0 0 1 -.4.584.512.512 0 0 1 -.091.01z" fill="#323c6b"/><path d="m31.521 63.476a.5.5 0 0 1 -.5-.468l-1.042-16.448a.5.5 0 0 1 .467-.531.507.507 0 0 1 .531.467l1.043 16.448a.5.5 0 0 1 -.467.531z" fill="#323c6b"/><path d="m40.581 63.476h-.032a.5.5 0 0 1 -.467-.531l1.042-16.445a.505.505 0 0 1 .531-.467.5.5 0 0 1 .467.531l-1.043 16.443a.5.5 0 0 1 -.498.469z" fill="#323c6b"/><path d="m49.64 63.476a.512.512 0 0 1 -.094-.009.5.5 0 0 1 -.4-.584l3.127-16.448a.5.5 0 1 1 .982.187l-3.125 16.447a.5.5 0 0 1 -.49.407z" fill="#323c6b"/><path d="m20.657 7.467a.5.5 0 0 1 -.193-.961 35.039 35.039 0 0 1 10.457-2.927.494.494 0 0 1 .544.452.5.5 0 0 1 -.452.544 34.141 34.141 0 0 0 -10.163 2.853.491.491 0 0 1 -.193.039z" fill="#323c6b"/><path d="m33.726 4.393a.5.5 0 0 1 -.02-1l.273-.012c.187-.008.373-.017.561-.022a.516.516 0 0 1 .513.487.5.5 0 0 1 -.487.513c-.182 0-.362.013-.542.021l-.278.012z" fill="#323c6b"/><path d="m63.531 62.233a.491.491 0 0 1 -.1-.011.5.5 0 0 1 -.387-.591l.177-.848a.5.5 0 1 1 .979.2l-.177.848a.5.5 0 0 1 -.492.402z" fill="#323c6b"/><path d="m58.07 71.718a.5.5 0 0 1 -.221-.949 8.685 8.685 0 0 0 4.564-6.145.5.5 0 0 1 .979.205 9.676 9.676 0 0 1 -5.1 6.837.493.493 0 0 1 -.222.052z" fill="#323c6b"/><path d="m54.579 69.4h-37.057a6.326 6.326 0 0 1 -6.05-5.274l-4.961-23.71a.5.5 0 0 1 .333-.577c18.051-5.965 37.7-5.967 58.4-.006a.5.5 0 0 1 .351.583l-4.967 23.709a6.325 6.325 0 0 1 -6.049 5.275zm-47-28.75 4.87 23.271a5.337 5.337 0 0 0 5.073 4.479h37.057a5.336 5.336 0 0 0 5.071-4.48l4.866-23.254c-20.175-5.73-39.325-5.736-56.935-.017z" fill="#323c6b"/><path d="m12.584 49.028a.8.8 0 0 1 -.778-.632l-.119-.618a.8.8 0 1 1 1.557-.326l.119.618a.8.8 0 0 1 -.615.942.81.81 0 0 1 -.164.016z" fill="#fff"/><path d="m15.157 61.568a.8.8 0 0 1 -.778-.632l-1.857-9.118a.8.8 0 0 1 1.557-.326l1.857 9.118a.8.8 0 0 1 -.615.942.81.81 0 0 1 -.164.016z" fill="#fff"/><path d="m68.206 34.992c0 3.569-3.2 6.46-7.159 6.46a7.315 7.315 0 0 1 -6.251-3.319 7.537 7.537 0 0 1 -12.493 0 7.547 7.547 0 0 1 -12.5 0 7.288 7.288 0 0 1 -6.251 3.319 7.283 7.283 0 0 1 -6.241-3.319 7.315 7.315 0 0 1 -6.251 3.319c-3.955 0-7.159-2.891-7.159-6.46a6.406 6.406 0 0 1 4.07-5.824 4.377 4.377 0 0 1 -1.054-2.88v-.042c0-8.923 13.046-19.279 29.149-19.279 16.083 0 29.128 10.356 29.128 19.279v.042a4.488 4.488 0 0 1 -1.054 2.88 6.406 6.406 0 0 1 4.066 5.824z" fill="#fcd462"/><path d="m64.136 29.169a4.488 4.488 0 0 0 1.054-2.88v-.042c0-8.923-13.046-19.279-29.128-19.279-8.116 0-14.742 2.924-20.026 5.891 4.753-1.867 9.843-4.051 16.112-4.051 16.083 0 29.128 10.356 29.128 19.279v.042a4.488 4.488 0 0 1 -1.054 2.88 6.406 6.406 0 0 1 4.07 5.824 6.132 6.132 0 0 1 -2.051 4.523 6.69 6.69 0 0 0 5.964-6.363 6.406 6.406 0 0 0 -4.069-5.824z" fill="#f7be56"/><g fill="#323c6b"><path d="m25.763 14.75a.5.5 0 0 1 -.481-.627c.019-.067.481-1.654 2.934-1.733a.5.5 0 1 1 .032 1c-1.681.055-1.992.969-2 1.008a.508.508 0 0 1 -.485.352z"/><path d="m46.348 14.755a.5.5 0 0 1 -.479-.36c-.017-.053-.336-.952-2-1.007a.5.5 0 0 1 -.483-.516.521.521 0 0 1 .516-.483c2.452.08 2.915 1.666 2.934 1.733a.5.5 0 0 1 -.35.615.52.52 0 0 1 -.138.018z"/><path d="m16.318 27.251a.505.505 0 0 1 -.131-.018.5.5 0 0 1 -.353-.6c.017-.065.434-1.608 2.848-1.814a.5.5 0 0 1 .085 1c-1.668.143-1.954 1.035-1.966 1.073a.508.508 0 0 1 -.483.359z"/><path d="m55.793 27.257a.5.5 0 0 1 -.482-.369c-.017-.054-.313-.93-1.965-1.071a.5.5 0 0 1 -.456-.541.491.491 0 0 1 .541-.456c2.414.206 2.831 1.749 2.847 1.814a.5.5 0 0 1 -.362.607.508.508 0 0 1 -.123.016z"/><path d="m33.755 23.654a.5.5 0 0 1 -.419-.766c.037-.057.923-1.38 3.241-.769a.5.5 0 0 1 -.254.967c-1.585-.416-2.131.323-2.153.354a.51.51 0 0 1 -.415.214z"/><path d="m26.81 32.222a.5.5 0 0 1 -.44-.727c.03-.057.76-1.371 3.03-1.048a.5.5 0 0 1 .424.566.492.492 0 0 1 -.566.424c-1.537-.222-1.991.5-2.009.536a.51.51 0 0 1 -.439.249z"/><path d="m61.042 36.426a.5.5 0 0 1 -.481-.366c-.017-.053-.3-.859-1.858-1.021a.5.5 0 1 1 .1-.995c2.305.24 2.705 1.7 2.721 1.757a.5.5 0 0 1 -.485.625z"/><path d="m42.838 32.071a.5.5 0 0 1 -.375-.825c.042-.048 1.058-1.155 3.188-.292a.5.5 0 1 1 -.376.927c-1.438-.583-2.047.012-2.072.039a.51.51 0 0 1 -.365.151z"/><path d="m11.155 36.345a.505.505 0 0 1 -.134-.019.5.5 0 0 1 -.35-.6c.016-.062.417-1.517 2.724-1.758a.5.5 0 1 1 .1.994c-1.578.165-1.851.989-1.862 1.024a.508.508 0 0 1 -.478.359z"/><path d="m61.046 41.953a7.936 7.936 0 0 1 -6.25-2.945 8.1 8.1 0 0 1 -12.5 0 8.1 8.1 0 0 1 -12.5 0 8.1 8.1 0 0 1 -12.5 0 7.936 7.936 0 0 1 -6.25 2.945c-4.223 0-7.659-3.123-7.659-6.96a6.868 6.868 0 0 1 3.8-6.014 4.941 4.941 0 0 1 -.788-2.69c0-9.188 12.951-19.821 29.649-19.821s29.641 10.632 29.641 19.779a5.126 5.126 0 0 1 -.791 2.73 6.868 6.868 0 0 1 3.807 6.016c.001 3.837-3.435 6.96-7.659 6.96zm-6.251-4.319a.5.5 0 0 1 .425.236 6.838 6.838 0 0 0 5.827 3.083c3.672 0 6.659-2.674 6.659-5.96a5.934 5.934 0 0 0 -3.765-5.363.5.5 0 0 1 -.186-.784 4.013 4.013 0 0 0 .935-2.561c0-8.543-12.77-18.816-28.628-18.816s-28.65 10.272-28.65 18.778a3.933 3.933 0 0 0 .932 2.6.5.5 0 0 1 -.183.787 5.934 5.934 0 0 0 -3.761 5.358c0 3.287 2.987 5.96 6.659 5.96a6.838 6.838 0 0 0 5.827-3.083.5.5 0 0 1 .425-.236.575.575 0 0 1 .426.238 6.8 6.8 0 0 0 5.815 3.081 6.812 6.812 0 0 0 5.826-3.081.665.665 0 0 1 .426-.238.5.5 0 0 1 .425.236 7.048 7.048 0 0 0 11.653 0 .5.5 0 0 1 .425-.236.519.519 0 0 1 .426.238 7.038 7.038 0 0 0 11.641 0 .5.5 0 0 1 .425-.238z"/></g></svg>