<svg id="line_color" height="512" viewBox="0 0 74 74" width="512" xmlns="http://www.w3.org/2000/svg" data-name="line color"><circle cx="37.418" cy="37" fill="#e7aa6c" r="34"/><path d="m37.418 71.5a34.5 34.5 0 1 1 34.5-34.5 34.539 34.539 0 0 1 -34.5 34.5zm0-68a33.5 33.5 0 1 0 33.5 33.5 33.538 33.538 0 0 0 -33.5-33.5z" fill="#323c6b"/><path d="m65.818 37c0 2.965-2.262 5.536-3.131 8.211-.9 2.772-.612 6.176-2.292 8.484-1.7 2.331-5.034 3.1-7.364 4.8-2.308 1.679-4.062 4.625-6.834 5.526-2.675.869-5.814-.455-8.779-.455s-6.1 1.324-8.779.455c-2.772-.9-4.527-3.846-6.835-5.526-2.331-1.7-5.668-2.466-7.364-4.8-1.679-2.308-1.391-5.711-2.291-8.484-.869-2.675-3.131-5.246-3.131-8.211s2.262-5.536 3.131-8.211c.9-2.772.612-6.176 2.292-8.484 1.7-2.331 5.034-3.1 7.364-4.8 2.308-1.679 4.062-4.625 6.834-5.526 2.675-.869 5.814.455 8.779.455s6.1-1.324 8.779-.455c2.772.9 4.527 3.846 6.835 5.526 2.331 1.7 5.668 2.466 7.364 4.8 1.679 2.308 1.391 5.711 2.291 8.484.868 2.675 3.131 5.246 3.131 8.211z" fill="#eeefee"/><path d="m62.687 28.789c-.9-2.772-.612-6.176-2.291-8.484-1.7-2.331-5.034-3.1-7.364-4.8-2.308-1.679-4.062-4.625-6.835-5.526-2.675-.869-5.814.455-8.779.455s-6.1-1.324-8.779-.455c-2.52.818-4.2 3.318-6.221 5.029v.35a9.031 9.031 0 0 1 3.382-2.27c2.675-.869 5.814.455 8.779.455s6.1-1.324 8.779-.455c2.772.9 4.527 3.846 6.834 5.526 2.331 1.7 5.668 2.466 7.364 4.8 1.679 2.308 1.391 5.711 2.291 8.484.869 2.675 3.131 5.246 3.131 8.211s-2.262 5.536-3.131 8.211c-.757 2.33-.687 5.1-1.638 7.295a7.573 7.573 0 0 0 2.191-1.92c1.68-2.308 1.391-5.711 2.292-8.484.869-2.675 3.131-5.246 3.131-8.211s-2.268-5.536-3.136-8.211z" fill="#e1e6e9"/><path d="m42.111 56.14a12.348 12.348 0 0 1 -1.741-.124 2.286 2.286 0 0 1 -1.97-1.937 2.216 2.216 0 0 1 1.236-2.379c2.884-1.409 5.95-2.551 8.915-3.657 2.121-.791 4.314-1.608 6.416-2.515a5.75 5.75 0 0 0 2.432-1.6 1.776 1.776 0 0 0 .051-2.256 2.859 2.859 0 0 0 -1.941-.471 93.874 93.874 0 0 0 -12.655 1.533l-.52.086a.5.5 0 0 1 -.164-.986l.519-.086a94.45 94.45 0 0 1 12.819-1.546 3.654 3.654 0 0 1 2.627.743 2.763 2.763 0 0 1 .063 3.585 6.549 6.549 0 0 1 -2.835 1.913c-2.126.917-4.331 1.738-6.463 2.534-2.942 1.1-5.985 2.231-8.825 3.618a1.22 1.22 0 0 0 -.69 1.322 1.306 1.306 0 0 0 1.126 1.1 11.17 11.17 0 0 0 3.091.013 23.384 23.384 0 0 0 2.753-.6 17.6 17.6 0 0 1 3.967-.715.529.529 0 0 1 .513.487.5.5 0 0 1 -.487.513 16.565 16.565 0 0 0 -3.74.683 24.278 24.278 0 0 1 -2.872.626 12.04 12.04 0 0 1 -1.625.116z" fill="#ef5261"/><path d="m41.836 32.592a.5.5 0 0 1 -.129-.983c.288-.077 1.187-.3 2.078-.525.863-.216 1.719-.43 2-.5 2.086-.55 4.063-1.159 5.346-2.562a4.1 4.1 0 0 0 1.012-3.032 2.477 2.477 0 0 0 -.95-1.8c-1.06-.773-2.576-.57-4.035-.3-7.617 1.43-15.648 3.163-22.754 7.176a5.191 5.191 0 0 1 -1.432.629 4.492 4.492 0 0 1 -1.517 0 26.439 26.439 0 0 1 -3.583-.741 2.584 2.584 0 0 1 -1.621-1.04 2.338 2.338 0 0 1 -.251-1.087 6.029 6.029 0 0 1 1.839-4.115 13.71 13.71 0 0 1 3.6-2.468 44.731 44.731 0 0 1 10.061-3.728l.484-.113c2.133-.495 4.338-1.007 5.555-2.621a.5.5 0 1 1 .8.6c-1.436 1.9-3.928 2.482-6.128 2.992l-.479.112a43.731 43.731 0 0 0 -9.832 3.648 12.811 12.811 0 0 0 -3.346 2.279 5.024 5.024 0 0 0 -1.554 3.397 1.436 1.436 0 0 0 .118.6 1.784 1.784 0 0 0 1.031.573 25.328 25.328 0 0 0 3.438.71 3.571 3.571 0 0 0 1.174.017 4.088 4.088 0 0 0 1.076-.481c7.311-4.129 15.772-5.942 23.134-7.329 1.6-.3 3.427-.538 4.811.471a3.47 3.47 0 0 1 1.354 2.512 5.069 5.069 0 0 1 -1.27 3.8c-1.466 1.6-3.593 2.264-5.827 2.853-.279.075-1.142.291-2.012.508s-1.776.444-2.062.521a.5.5 0 0 1 -.129.027z" fill="#ef5261"/><path d="m26.135 46.049c-.21 0-.423 0-.64 0h-3.541a2.868 2.868 0 0 1 -1.375-.25 2.273 2.273 0 0 1 -1.044-1.4 4.915 4.915 0 0 1 1.281-4.619 11.686 11.686 0 0 1 3.884-2.566c.942-.437 3.333-1.315 5.079-1.955.631-.231 1.173-.431 1.521-.562a.5.5 0 0 1 .354.935c-.351.133-.9.333-1.531.566-1.729.635-4.1 1.5-5 1.924a10.836 10.836 0 0 0 -3.566 2.325 3.973 3.973 0 0 0 -1.065 3.662 1.345 1.345 0 0 0 .556.805 2.037 2.037 0 0 0 .9.133h3.552a18.835 18.835 0 0 0 3.251-.165 53.371 53.371 0 0 0 5.2-1.532c.579-.189 1.074-.351 1.4-.452a.5.5 0 1 1 .294.956c-.324.1-.812.259-1.385.446a51.989 51.989 0 0 1 -5.354 1.569 16.8 16.8 0 0 1 -2.771.18z" fill="#ef5261"/><circle cx="37.418" cy="36.91" fill="#fff" r="7.535"/><g fill="#323c6b"><path d="m37.417 44.945a8.035 8.035 0 1 1 8.035-8.035 8.044 8.044 0 0 1 -8.035 8.035zm0-15.07a7.035 7.035 0 1 0 7.035 7.035 7.043 7.043 0 0 0 -7.035-7.035z"/><path d="m57.012 68.853a.5.5 0 0 1 -.266-.924 36.807 36.807 0 0 0 6.9-5.589.5.5 0 0 1 .719.7 37.834 37.834 0 0 1 -7.092 5.741.5.5 0 0 1 -.261.072z"/><path d="m53.137 70.982a.5.5 0 0 1 -.216-.951c.363-.173.724-.353 1.081-.536a.5.5 0 1 1 .456.89q-.549.282-1.106.549a.5.5 0 0 1 -.215.048z"/><path d="m3.09 22.468a.5.5 0 0 1 -.457-.7 37.6 37.6 0 0 1 5.492-8.882.5.5 0 1 1 .77.639 36.6 36.6 0 0 0 -5.346 8.646.5.5 0 0 1 -.459.297z"/><path d="m10.487 11.5a.5.5 0 0 1 -.358-.849q.357-.367.725-.721a.5.5 0 0 1 .7.719q-.357.345-.7.7a.5.5 0 0 1 -.367.151z"/><path d="m44.139 64.811a20.943 20.943 0 0 1 -3.385-.376 20.953 20.953 0 0 0 -3.335-.373 20.9 20.9 0 0 0 -3.336.374 11.918 11.918 0 0 1 -5.6.057 12 12 0 0 1 -4.609-3.419 19.457 19.457 0 0 0 -2.364-2.174 19.784 19.784 0 0 0 -2.836-1.606 12.024 12.024 0 0 1 -4.637-3.3 12 12 0 0 1 -1.7-5.4 20.6 20.6 0 0 0 -.66-3.22 19.008 19.008 0 0 0 -1.318-2.872 12.043 12.043 0 0 1 -1.841-5.502 12.042 12.042 0 0 1 1.838-5.494 19.052 19.052 0 0 0 1.317-2.872 20.554 20.554 0 0 0 .66-3.221 12.012 12.012 0 0 1 1.7-5.4 12.035 12.035 0 0 1 4.637-3.3 19.764 19.764 0 0 0 2.84-1.613 19.46 19.46 0 0 0 2.367-2.178 12 12 0 0 1 4.608-3.419 11.946 11.946 0 0 1 5.6.057 20.892 20.892 0 0 0 3.335.374 20.892 20.892 0 0 0 3.335-.374 11.939 11.939 0 0 1 5.6-.057 12 12 0 0 1 4.608 3.419 19.457 19.457 0 0 0 2.363 2.178 19.764 19.764 0 0 0 2.837 1.606 12.035 12.035 0 0 1 4.637 3.3 12.012 12.012 0 0 1 1.7 5.4 20.565 20.565 0 0 0 .66 3.221 19.026 19.026 0 0 0 1.317 2.872 12.047 12.047 0 0 1 1.841 5.501 12.042 12.042 0 0 1 -1.838 5.494 19.052 19.052 0 0 0 -1.317 2.872 20.591 20.591 0 0 0 -.66 3.22 12 12 0 0 1 -1.7 5.4 12.035 12.035 0 0 1 -4.637 3.3 19.764 19.764 0 0 0 -2.841 1.614 19.46 19.46 0 0 0 -2.367 2.178 12 12 0 0 1 -4.608 3.419 7.122 7.122 0 0 1 -2.211.314zm-6.721-1.749a21.665 21.665 0 0 1 3.5.387 11.074 11.074 0 0 0 5.125.093 11.272 11.272 0 0 0 4.2-3.167 20.514 20.514 0 0 1 2.493-2.288 20.785 20.785 0 0 1 2.98-1.692 11.14 11.14 0 0 0 4.275-2.995 11.114 11.114 0 0 0 1.523-4.964 21.3 21.3 0 0 1 .7-3.379 20.086 20.086 0 0 1 1.383-3.028 11.317 11.317 0 0 0 1.721-5.029 11.314 11.314 0 0 0 -1.723-5.029 20.059 20.059 0 0 1 -1.383-3.028 21.271 21.271 0 0 1 -.7-3.38 11.115 11.115 0 0 0 -1.521-4.963 11.14 11.14 0 0 0 -4.274-2.995 20.785 20.785 0 0 1 -2.98-1.692 20.51 20.51 0 0 1 -2.493-2.288 11.279 11.279 0 0 0 -4.2-3.167 11.062 11.062 0 0 0 -5.125.093 21.659 21.659 0 0 1 -3.5.387 21.659 21.659 0 0 1 -3.5-.387 11.062 11.062 0 0 0 -5.125-.093 11.28 11.28 0 0 0 -4.2 3.167 20.514 20.514 0 0 1 -2.494 2.288 20.785 20.785 0 0 1 -2.98 1.692 11.14 11.14 0 0 0 -4.275 2.995 11.122 11.122 0 0 0 -1.522 4.963 21.271 21.271 0 0 1 -.7 3.38 20.086 20.086 0 0 1 -1.383 3.028 11.317 11.317 0 0 0 -1.722 5.029 11.307 11.307 0 0 0 1.724 5.028 20.086 20.086 0 0 1 1.383 3.028 21.313 21.313 0 0 1 .7 3.379 11.114 11.114 0 0 0 1.52 4.965 11.132 11.132 0 0 0 4.274 2.995 20.806 20.806 0 0 1 2.981 1.692 20.582 20.582 0 0 1 2.493 2.287 11.277 11.277 0 0 0 4.2 3.167 11.06 11.06 0 0 0 5.125-.093 21.671 21.671 0 0 1 3.5-.386z"/></g><path d="m29.194 59.481a.691.691 0 0 1 -.286-.062 11.386 11.386 0 0 1 -3.3-2.614 15.726 15.726 0 0 0 -1.866-1.71 15.765 15.765 0 0 0 -2.249-1.272c-.237-.119-.474-.237-.709-.357a.7.7 0 1 1 .641-1.245c.229.118.461.234.693.35a17.1 17.1 0 0 1 2.448 1.393 17.033 17.033 0 0 1 2.039 1.86 10.228 10.228 0 0 0 2.875 2.319.7.7 0 0 1 -.287 1.339z" fill="#fff"/><path d="m18.056 51.106a.7.7 0 0 1 -.595-.33 6.834 6.834 0 0 1 -.765-1.808.7.7 0 1 1 1.35-.374 5.445 5.445 0 0 0 .6 1.442.7.7 0 0 1 -.594 1.07z" fill="#fff"/></svg>