<svg id="color_line" height="512" viewBox="0 0 74 74" width="512" xmlns="http://www.w3.org/2000/svg" data-name="color line"><path d="m21.065 26.976a13.74 13.74 0 0 1 -.3-2.855c.001-8.213 7.269-14.871 16.235-14.871s16.234 6.658 16.234 14.871a13.725 13.725 0 0 1 -.327 2.981c-11.92 11.598-22.594 11.098-31.842-.126z" fill="#9edbbc"/><path d="m52.76 22.458c-.572-6.658-6.093-12.028-13.192-13.05a21.075 21.075 0 0 0 -2.415-.158 16.061 16.061 0 0 0 -11.927 5.1 16.447 16.447 0 0 1 8.867-2.528 20.634 20.634 0 0 1 2.414.158 15.3 15.3 0 0 1 12.713 10.478z" fill="#72bc99"/><path d="m38.044 13.691 1.972.698" fill="#e1e6e9"/><path d="m40.016 14.889a.485.485 0 0 1 -.167-.029l-1.972-.7a.5.5 0 0 1 .334-.942l1.972.7a.5.5 0 0 1 -.167.971z" fill="#323c6b"/><path d="m26.573 23.408a.5.5 0 0 1 -.5-.5v-1.481a.5.5 0 0 1 1 0v1.481a.5.5 0 0 1 -.5.5z" fill="#323c6b"/><path d="m48.128 23.326a.5.5 0 0 1 -.5-.5v-1.4a.5.5 0 0 1 1 0v1.4a.5.5 0 0 1 -.5.5z" fill="#323c6b"/><path d="m43.907 18.136-1.407.647" fill="#e1e6e9"/><path d="m42.5 19.283a.5.5 0 0 1 -.209-.954l1.407-.647a.5.5 0 1 1 .418.908l-1.407.647a.488.488 0 0 1 -.209.046z" fill="#323c6b"/><path d="m38.044 25.87 1.552-.411" fill="#e1e6e9"/><path d="m38.044 26.37a.5.5 0 0 1 -.127-.983l1.551-.411a.5.5 0 1 1 .256.966l-1.552.412a.516.516 0 0 1 -.128.016z" fill="#323c6b"/><path d="m35.015 19.782-.906 1.398" fill="#e1e6e9"/><path d="m34.109 21.681a.5.5 0 0 1 -.42-.772l.906-1.4a.5.5 0 1 1 .84.544l-.906 1.4a.5.5 0 0 1 -.42.228z" fill="#323c6b"/><path d="m30.525 15.585-1.258 1.482" fill="#e1e6e9"/><path d="m29.267 17.566a.5.5 0 0 1 -.381-.823l1.257-1.481a.5.5 0 0 1 .763.647l-1.258 1.481a.5.5 0 0 1 -.381.176z" fill="#323c6b"/><path d="m36.194 36.1c-.277 0-.554-.007-.829-.023-5.177-.284-10.118-3.239-14.686-8.783a.492.492 0 0 1 -.1-.214 14.334 14.334 0 0 1 -.309-2.959c-.004-8.475 7.502-15.371 16.73-15.371s16.734 6.9 16.734 15.371a14.282 14.282 0 0 1 -.334 3.089.491.491 0 0 1 -.14.25c-5.899 5.74-11.634 8.64-17.066 8.64zm-14.665-9.347c4.36 5.258 9.033 8.059 13.89 8.326 5.348.293 11.083-2.475 17.031-8.23a13.262 13.262 0 0 0 .283-2.728c0-7.921-7.058-14.371-15.733-14.371s-15.734 6.45-15.734 14.371a13.282 13.282 0 0 0 .263 2.632z" fill="#323c6b"/><path d="m39.022 35.187a57.342 57.342 0 0 0 -2.167-6.781 16.064 16.064 0 0 0 -12.778-6.077 20 20 0 0 0 -2.42.16c-6.974 1.011-12.423 6.211-13.157 12.698z" fill="#fac2c3"/><path d="m39.021 35.687h-30.521a.5.5 0 0 1 -.5-.556c.757-6.688 6.342-12.09 13.582-13.137a20.41 20.41 0 0 1 2.492-.164 16.637 16.637 0 0 1 13.177 6.27.475.475 0 0 1 .071.126 58.067 58.067 0 0 1 2.185 6.841.5.5 0 0 1 -.486.619zm-29.949-1h29.307a59.184 59.184 0 0 0 -1.964-6.034 15.644 15.644 0 0 0 -12.338-5.823 19.274 19.274 0 0 0 -2.359.155c-6.577.951-11.701 5.724-12.646 11.702z" fill="#323c6b"/><path d="m30.438 31.509-1.407.647" fill="#e1e6e9"/><path d="m29.031 32.656a.5.5 0 0 1 -.209-.954l1.407-.647a.5.5 0 1 1 .417.908l-1.406.647a.5.5 0 0 1 -.209.046z" fill="#323c6b"/><path d="m21.546 33.154-.906 1.399" fill="#e1e6e9"/><path d="m20.64 35.053a.493.493 0 0 1 -.272-.081.5.5 0 0 1 -.147-.691l.905-1.4a.5.5 0 0 1 .839.544l-.905 1.4a.5.5 0 0 1 -.42.228z" fill="#323c6b"/><path d="m65.193 35.187c-.735-6.491-6.183-11.69-13.157-12.7a20.017 20.017 0 0 0 -2.42-.16 16 16 0 0 0 -12.761 6.077 13.366 13.366 0 0 0 -2.8 6.781z" fill="#d4ec8c"/><path d="m48.976 25.058a15.344 15.344 0 0 1 12.6 10.129h3.615c-.735-6.49-6.186-11.692-13.158-12.7a21.072 21.072 0 0 0 -2.414-.158 16.062 16.062 0 0 0 -11.928 5.1 16.447 16.447 0 0 1 8.871-2.529 20.634 20.634 0 0 1 2.414.158z" fill="#bed86b"/><path d="m50.501 27.063 1.972.699" fill="#e1e6e9"/><path d="m52.473 28.262a.51.51 0 0 1 -.167-.029l-1.972-.7a.5.5 0 0 1 .334-.943l1.972.7a.5.5 0 0 1 -.167.971z" fill="#323c6b"/><path d="m56.364 31.509-1.407.647" fill="#e1e6e9"/><path d="m54.958 32.656a.5.5 0 0 1 -.21-.954l1.407-.647a.5.5 0 1 1 .418.908l-1.407.647a.5.5 0 0 1 -.208.046z" fill="#323c6b"/><path d="m47.472 33.154-.906 1.399" fill="#e1e6e9"/><path d="m46.566 35.053a.5.5 0 0 1 -.419-.772l.906-1.4a.5.5 0 0 1 .839.544l-.906 1.4a.5.5 0 0 1 -.42.228z" fill="#323c6b"/><path d="m42.981 28.958-1.257 1.481" fill="#e1e6e9"/><path d="m41.724 30.939a.5.5 0 0 1 -.381-.824l1.257-1.481a.5.5 0 0 1 .763.648l-1.258 1.481a.5.5 0 0 1 -.381.176z" fill="#323c6b"/><path d="m65.193 35.687h-31.134a.5.5 0 0 1 -.5-.556 13.926 13.926 0 0 1 2.9-7.034 16.563 16.563 0 0 1 13.157-6.267 20.26 20.26 0 0 1 2.48.163c7.252 1.048 12.837 6.45 13.594 13.138a.5.5 0 0 1 -.5.556zm-30.562-1h29.99c-.945-5.978-6.069-10.751-12.657-11.7a19.341 19.341 0 0 0 -2.348-.153 15.565 15.565 0 0 0 -12.364 5.879 12.956 12.956 0 0 0 -2.621 5.974z" fill="#323c6b"/><path d="m24.575 27.063 1.971.699" fill="#e1e6e9"/><path d="m26.546 28.262a.52.52 0 0 1 -.167-.029l-1.971-.7a.5.5 0 0 1 .334-.943l1.971.7a.5.5 0 0 1 -.167.971z" fill="#323c6b"/><path d="m17.055 28.958-1.257 1.481" fill="#e1e6e9"/><path d="m15.8 30.939a.5.5 0 0 1 -.38-.824l1.257-1.481a.5.5 0 0 1 .763.648l-1.258 1.481a.5.5 0 0 1 -.382.176z" fill="#323c6b"/><path d="m4.687 35.04h64.625a1.688 1.688 0 0 1 1.688 1.688v4.24a1.688 1.688 0 0 1 -1.687 1.688h-64.626a1.687 1.687 0 0 1 -1.687-1.688v-4.24a1.688 1.688 0 0 1 1.687-1.688z" fill="#eeefee"/><path d="m71 36.73v4.24a1.694 1.694 0 0 1 -1.69 1.69h-3.61a1.686 1.686 0 0 0 1.68-1.69v-4.24a1.686 1.686 0 0 0 -1.68-1.69h3.61a1.694 1.694 0 0 1 1.69 1.69z" fill="#e1e6e9"/><path d="m67.043 42.809c-.558 9.706-6.946 23.343-19.6 24.817h-20.886c-12.657-1.474-19.042-15.111-19.6-24.817z" fill="#eeefee"/><path d="m67.04 42.81c-.55 9.7-6.94 23.34-19.6 24.82h-20.88c-5.63-.66-10.02-3.92-13.21-8.2a18.018 18.018 0 0 0 10.32 4.95h20.88c11.31-1.32 17.61-12.15 19.22-21.57z" fill="#e1e6e9"/><g fill="#323c6b"><path d="m69.312 43.156h-64.624a2.19 2.19 0 0 1 -2.188-2.188v-4.24a2.19 2.19 0 0 1 2.188-2.187h64.624a2.19 2.19 0 0 1 2.188 2.187v4.24a2.19 2.19 0 0 1 -2.188 2.188zm-64.624-7.615a1.189 1.189 0 0 0 -1.188 1.187v4.24a1.189 1.189 0 0 0 1.188 1.188h64.624a1.189 1.189 0 0 0 1.188-1.188v-4.24a1.189 1.189 0 0 0 -1.188-1.187z"/><path d="m26.557 68.126c-7.455-.865-12.131-5.667-14.75-9.542a32.719 32.719 0 0 1 -5.349-15.746.5.5 0 0 1 .5-.529h60.085a.5.5 0 0 1 .5.529 32.719 32.719 0 0 1 -5.349 15.746c-2.62 3.875-7.294 8.677-14.694 9.539zm-19.067-24.817c1.146 15.852 12.288 23.024 19.125 23.82h20.828c6.779-.793 17.921-7.965 19.067-23.817z"/><path d="m19.828 16.625a.5.5 0 0 1 -.439-.739c.215-.393.44-.781.683-1.157a.5.5 0 0 1 .84.542c-.229.356-.442.722-.645 1.093a.5.5 0 0 1 -.439.261z"/><path d="m22.575 12.875a.5.5 0 0 1 -.363-.844 19.994 19.994 0 0 1 10.626-5.823.5.5 0 1 1 .2.98 19 19 0 0 0 -10.1 5.531.5.5 0 0 1 -.363.156z"/><path d="m67.746 53.833a.5.5 0 0 1 -.466-.68c.169-.437.337-.873.488-1.315a.5.5 0 1 1 .946.324c-.154.454-.327.9-.5 1.352a.5.5 0 0 1 -.468.319z"/><path d="m62.127 63.25a.5.5 0 0 1 -.377-.829 30.468 30.468 0 0 0 4.7-7.3.5.5 0 1 1 .907.419 31.465 31.465 0 0 1 -4.857 7.539.5.5 0 0 1 -.373.171z"/></g></svg>