<svg id="color_line" height="512" viewBox="0 0 74 74" width="512" xmlns="http://www.w3.org/2000/svg" data-name="color line"><path d="m53.2 68.956a.5.5 0 0 1 -.27-.921 34.308 34.308 0 0 0 7.892-6.986.5.5 0 1 1 .77.639 35.3 35.3 0 0 1 -8.122 7.189.5.5 0 0 1 -.27.079z" fill="#323c6b"/><path d="m63.625 58.581a.5.5 0 0 1 -.419-.772q.234-.363.461-.731a.5.5 0 0 1 .852.523c-.155.253-.312.5-.475.752a.5.5 0 0 1 -.419.228z" fill="#323c6b"/><path d="m66.16 39.34a31.565 31.565 0 1 1 -21.03-29.77l-2.11 5.96a25.276 25.276 0 1 0 15.41 15.47l5.96-2.08a31.317 31.317 0 0 1 1.77 10.42z" fill="#f4bb87"/><path d="m34.57 71.41a32.075 32.075 0 1 1 10.73-62.31.5.5 0 0 1 .3.638l-2.11 5.96a.5.5 0 0 1 -.64.3 24.775 24.775 0 1 0 15.108 15.168.5.5 0 0 1 .307-.638l5.96-2.08a.5.5 0 0 1 .637.306 32.067 32.067 0 0 1 -30.292 42.656zm0-63.15a31.082 31.082 0 1 0 29.51 21.3l-5.017 1.751a25.538 25.538 0 0 1 1.287 8.029 25.8 25.8 0 1 1 -17.636-24.44l1.776-5.022a31.017 31.017 0 0 0 -9.92-1.618z" fill="#323c6b"/><path d="m9.31 39.34a25.305 25.305 0 0 1 24-25.238c-.246-.007-.488-.032-.736-.032a25.265 25.265 0 0 0 0 50.53c.336 0 .668-.012 1-.025a25.292 25.292 0 0 1 -24.264-25.235z" fill="#edb485"/><path d="m43.13 9.57-1.912 5.4c.609.167 1.213.348 1.8.558l2.11-5.96a31.522 31.522 0 0 0 -10.558-1.808c-.308 0-.613.014-.919.023a31.485 31.485 0 0 1 9.479 1.787z" fill="#edb485"/><path d="m64.39 28.92-1.794.626a31.543 31.543 0 0 1 -29.025 41.339c.333.01.664.025 1 .025a31.568 31.568 0 0 0 29.819-41.99z" fill="#edb485"/><path d="m59.85 39.34a25.3 25.3 0 1 1 -16.83-23.81l-8.45 23.81 23.86-8.34a25.052 25.052 0 0 1 1.42 8.34z" fill="#ffd1a4"/><path d="m34.57 65.1a25.765 25.765 0 1 1 8.617-50.042.5.5 0 0 1 .3.638l-8.1 22.827 22.874-8a.5.5 0 0 1 .637.306 25.522 25.522 0 0 1 1.452 8.511 25.8 25.8 0 0 1 -25.78 25.76zm0-50.53a24.78 24.78 0 1 0 23.549 17.068l-23.384 8.174a.5.5 0 0 1 -.637-.639l8.282-23.335a24.613 24.613 0 0 0 -7.81-1.268z" fill="#323c6b"/><path d="m64.406 29.42h-.013a.5.5 0 0 1 0-1 .5.5 0 0 1 .506.5.494.494 0 0 1 -.493.5z" fill="#323c6b"/><path d="m58.071 3.283a.5.5 0 0 1 -.245-.064l-.381-.211a.5.5 0 1 1 .479-.878l.393.217a.5.5 0 0 1 -.245.936z" fill="#323c6b"/><path d="m48.606 2.859a.5.5 0 0 1 -.472-.667l1.1-3.113a.5.5 0 0 1 .258-.285.5.5 0 0 1 .383-.018l2.84 1.024c1.077.387 2.139.824 3.157 1.3a.5.5 0 0 1 -.422.9c-.991-.461-2.025-.886-3.073-1.264l-2.362-.85-.937 2.639a.5.5 0 0 1 -.472.334z" fill="#323c6b"/><path d="m71 22.22-5.32 1.88a32.606 32.606 0 0 0 -16.12-15.46l1.97-5.55a32.252 32.252 0 0 1 19.47 19.13z" fill="#f4bb87"/><path d="m65.68 24.6a.5.5 0 0 1 -.449-.28 32.113 32.113 0 0 0 -15.872-15.22.5.5 0 0 1 -.271-.625l1.97-5.55a.5.5 0 0 1 .258-.285.5.5 0 0 1 .384-.02 33.053 33.053 0 0 1 19.779 19.454.5.5 0 0 1 -.312.617l-5.32 1.88a.5.5 0 0 1 -.167.029zm-15.493-16.227a33.119 33.119 0 0 1 15.743 15.108l4.434-1.567a32.17 32.17 0 0 0 -18.532-18.18z" fill="#323c6b"/><path d="m51.53 3.09-.38 1.07a32.168 32.168 0 0 1 16.85 18.06l-2.78.982c.166.313.322.615.46.9l5.32-1.882a32.252 32.252 0 0 0 -19.47-19.13z" fill="#e6b17d"/><path d="m65.68 24.1-24.74 8.71 8.62-24.17a32.606 32.606 0 0 1 16.12 15.46z" fill="#ffd1a4"/><g fill="#323c6b"><path d="m40.939 33.31a.5.5 0 0 1 -.471-.668l8.622-24.17a.5.5 0 0 1 .672-.29 33.125 33.125 0 0 1 16.367 15.7.5.5 0 0 1 -.283.692l-24.74 8.71a.5.5 0 0 1 -.167.026zm8.911-23.992-8.087 22.672 23.216-8.173a32.124 32.124 0 0 0 -15.129-14.499z"/><path d="m52.07 25.031a3.162 3.162 0 1 1 0-6.323.5.5 0 0 1 0 1 2.162 2.162 0 1 0 1.889 3.216.5.5 0 1 1 .873.486 3.162 3.162 0 0 1 -2.762 1.621z"/><path d="m28.813 27.155a3.162 3.162 0 1 1 0-6.323.5.5 0 0 1 0 1 2.162 2.162 0 1 0 2.161 2.162.5.5 0 0 1 1 0 3.165 3.165 0 0 1 -3.161 3.161z"/><path d="m30.748 53.492a3.162 3.162 0 1 1 0-6.323.5.5 0 1 1 0 1 2.162 2.162 0 1 0 2.161 2.162.5.5 0 0 1 1 0 3.165 3.165 0 0 1 -3.161 3.161z"/><path d="m44.341 54.953a3.159 3.159 0 0 1 -3.105-3.759 3.158 3.158 0 0 1 3.7-2.508.5.5 0 0 1 .4.586.507.507 0 0 1 -.586.4 2.161 2.161 0 1 0 -.816 4.245 2.166 2.166 0 0 0 2.53-1.714.5.5 0 1 1 .982.189 3.168 3.168 0 0 1 -3.105 2.561z"/><path d="m21.095 40.135a3.168 3.168 0 0 1 -3.1-2.565.5.5 0 0 1 .982-.189 2.161 2.161 0 1 0 4.244-.816 2.157 2.157 0 0 0 -2.53-1.714.5.5 0 0 1 -.189-.982 3.162 3.162 0 0 1 1.2 6.21 3.207 3.207 0 0 1 -.607.056z"/><path d="m53.609 15.687a.5.5 0 0 1 -.379-.174l-.957-1.113a.5.5 0 1 1 .758-.651l.957 1.115a.5.5 0 0 1 -.379.826z"/><path d="m58.563 23.23a.5.5 0 0 1 -.5-.5v-2.53a.5.5 0 0 1 1 0v2.53a.5.5 0 0 1 -.5.5z"/><path d="m35.764 20.979a.5.5 0 0 1 -.5-.5v-1.7a.5.5 0 0 1 1 0v1.7a.5.5 0 0 1 -.5.5z"/><path d="m29.445 35.108a.5.5 0 0 1 -.486-.384l-.633-2.646a.5.5 0 1 1 .973-.232l.633 2.646a.5.5 0 0 1 -.486.616z"/><path d="m17.3 30.492a.5.5 0 0 1 -.348-.86l1.633-1.576a.5.5 0 0 1 .7.72l-1.633 1.576a.5.5 0 0 1 -.352.14z"/><path d="m16.4 42.708a.5.5 0 0 1 -.372-.166l-1.521-1.689a.5.5 0 0 1 .744-.669l1.521 1.689a.5.5 0 0 1 -.372.834z"/><path d="m28.84 42.483h-2.2a.5.5 0 0 1 0-1h2.2a.5.5 0 0 1 0 1z"/><path d="m18.481 49.971a.5.5 0 0 1 -.354-.854l1.8-1.8a.5.5 0 0 1 .707.707l-1.8 1.8a.5.5 0 0 1 -.353.147z"/><path d="m26.165 57.261a.5.5 0 0 1 -.354-.146l-1.6-1.6a.5.5 0 0 1 .707-.707l1.6 1.6a.5.5 0 0 1 -.354.854z"/><path d="m35.37 60.047a.5.5 0 0 1 -.354-.854l1.772-1.773a.5.5 0 0 1 .707.707l-1.771 1.773a.5.5 0 0 1 -.354.147z"/><path d="m40.168 44.848h-2.659a.5.5 0 0 1 0-1h2.659a.5.5 0 0 1 0 1z"/><path d="m46.572 41.583a.5.5 0 0 1 -.5-.5v-1.97a.5.5 0 0 1 1 0v1.97a.5.5 0 0 1 -.5.5z"/><path d="m51.977 50.139a.5.5 0 0 1 -.354-.146l-1.97-1.97a.5.5 0 0 1 .707-.707l1.97 1.97a.5.5 0 0 1 -.354.854z"/><path d="m52.062 41.892a.5.5 0 0 1 -.354-.854l2.279-2.28a.5.5 0 0 1 .707.707l-2.279 2.28a.5.5 0 0 1 -.353.147z"/><path d="m34.57 71.41a32.075 32.075 0 1 1 10.73-62.31.5.5 0 0 1 .3.638l-2.11 5.96a.5.5 0 0 1 -.64.3 24.775 24.775 0 1 0 15.108 15.168.5.5 0 0 1 .307-.638l5.96-2.08a.5.5 0 0 1 .637.306 32.067 32.067 0 0 1 -30.292 42.656zm0-63.15a31.082 31.082 0 1 0 29.51 21.3l-5.017 1.751a25.538 25.538 0 0 1 1.287 8.029 25.8 25.8 0 1 1 -17.636-24.44l1.776-5.022a31.017 31.017 0 0 0 -9.92-1.618z"/><path d="m65.68 24.6a.5.5 0 0 1 -.449-.28 32.113 32.113 0 0 0 -15.872-15.22.5.5 0 0 1 -.271-.625l1.97-5.55a.5.5 0 0 1 .258-.285.5.5 0 0 1 .384-.02 33.053 33.053 0 0 1 19.779 19.454.5.5 0 0 1 -.312.617l-5.32 1.88a.5.5 0 0 1 -.167.029zm-15.493-16.227a33.119 33.119 0 0 1 15.743 15.108l4.434-1.567a32.17 32.17 0 0 0 -18.532-18.18z"/></g><path d="m20.136 23.748c-.012-.019-.025-.037-.039-.055a.861.861 0 0 0 -1.207-.159 3.973 3.973 0 0 0 -.658.563.861.861 0 1 0 1.191 1.244 2.729 2.729 0 0 1 .515-.44.861.861 0 0 0 .198-1.153z" fill="#eeefee"/><path d="m17.445 26.688a.862.862 0 0 0 -1.412-.122 16.048 16.048 0 0 0 -3.503 10.434.861.861 0 0 0 1.722.034 14.448 14.448 0 0 1 3.109-9.374.861.861 0 0 0 .084-.972z" fill="#eeefee"/></svg>