<svg id="line_color" height="512" viewBox="0 0 74 74" width="512" xmlns="http://www.w3.org/2000/svg" data-name="line color"><path d="m24.751 56.677a2.006 2.006 0 0 1 -.367-.034c-10.014-1.865-18.017-9.794-20.746-16.663-1.738-4.38-1.48-8.458.732-11.489a8.871 8.871 0 0 1 7.476-3.932 13.815 13.815 0 0 1 4.99 1.038 2 2 0 0 1 -1.454 3.727 9.776 9.776 0 0 0 -3.487-.758 5.042 5.042 0 0 0 -4.295 2.28c-1.761 2.414-1.107 5.5-.249 7.657 2.267 5.707 9.263 12.625 17.761 14.207a2 2 0 0 1 -.364 3.967z" fill="#bbbbcd"/><path d="m24.751 57.177a2.534 2.534 0 0 1 -.458-.042c-10.193-1.9-18.34-9.973-21.121-16.97-1.805-4.543-1.523-8.793.793-11.969a9.346 9.346 0 0 1 7.88-4.137 14.314 14.314 0 0 1 5.172 1.072 2.5 2.5 0 0 1 -1.817 4.659c-3.282-1.28-5.568-.884-7.193 1.35s-1 5.135-.188 7.179c2.217 5.582 9.065 12.351 17.387 13.9a2.5 2.5 0 0 1 -.456 4.958zm-12.905-32.118a8.394 8.394 0 0 0 -7.072 3.726c-2.107 2.888-2.346 6.798-.674 11.015 2.681 6.737 10.54 14.52 20.376 16.351a1.5 1.5 0 0 0 .548-2.949c-8.674-1.616-15.817-8.684-18.134-14.514-.9-2.278-1.585-5.539.31-8.137s4.606-3.16 8.364-1.693a1.524 1.524 0 0 0 1.942-.852 1.5 1.5 0 0 0 -.852-1.943 13.322 13.322 0 0 0 -4.808-1.004z" fill="#323c6b"/><path d="m16.341 21.9h52.25c.154 1.639.241 3.308.241 5.007 0 15.3-2.449 28.455-11.689 34.286h-29.354c-9.24-5.829-11.689-18.98-11.689-34.285 0-1.699.087-3.368.241-5.008z" fill="#e1e6e9"/><path d="m68.83 26.91c0 15.3-2.45 28.45-11.69 34.28h-3.81c9.24-5.83 11.69-18.98 11.69-34.28 0-1.7-.09-3.37-.24-5.01h3.81c.15 1.64.24 3.31.24 5.01z" fill="#d5d6db"/><path d="m57.794 18.722a.5.5 0 0 1 -.365-.158c-.071-.076-1.729-1.9-.409-5.423 1.1-2.94-1.5-5.684-1.527-5.711a.5.5 0 0 1 .72-.694c.125.13 3.066 3.231 1.744 6.757-1.1 2.945.189 4.374.2 4.388a.5.5 0 0 1 -.365.842z" fill="#323c6b"/><path d="m48.222 15.452a.5.5 0 0 1 -.365-.158c-.071-.076-1.729-1.9-.409-5.423 1.1-2.929-1.5-5.684-1.527-5.711a.5.5 0 0 1 .72-.694c.125.13 3.065 3.231 1.744 6.756-1.1 2.945.188 4.374.2 4.388a.5.5 0 0 1 -.365.842z" fill="#323c6b"/><path d="m38.648 18.721a.494.494 0 0 1 -.362-.157c-.071-.076-1.729-1.9-.409-5.423 1.1-2.928-1.5-5.684-1.527-5.711a.5.5 0 0 1 .72-.694c.125.13 3.065 3.231 1.744 6.757-1.09 2.906.152 4.332.206 4.391a.5.5 0 0 1 -.371.837z" fill="#323c6b"/><path d="m29.078 18.67a.5.5 0 0 1 -.365-.158c-.071-.076-1.729-1.9-.409-5.423 1.1-2.94-1.5-5.684-1.526-5.711a.5.5 0 1 1 .72-.694c.125.13 3.065 3.231 1.743 6.757-1.1 2.945.189 4.374.2 4.388a.5.5 0 0 1 -.365.842z" fill="#323c6b"/><path d="m20.867 61.194h43.2a8.431 8.431 0 0 1 8.433 8.431v.562a0 0 0 0 1 0 0h-60.064a0 0 0 0 1 0 0v-.562a8.431 8.431 0 0 1 8.431-8.431z" fill="#e1e6e9" transform="matrix(-1 0 0 -1 84.932 131.381)"/><path d="m72.5 61.19v.57a8.437 8.437 0 0 1 -8.43 8.43h-43.2a8.418 8.418 0 0 1 -6.91-3.6 8.423 8.423 0 0 0 3.62.81h43.2a8.438 8.438 0 0 0 8.13-6.21z" fill="#d5d6db"/><g fill="#323c6b"><path d="m70.862 41.838a.483.483 0 0 1 -.091-.008.5.5 0 0 1 -.4-.582 52.881 52.881 0 0 0 .844-8.319.486.486 0 0 1 .511-.489.5.5 0 0 1 .489.511 53.9 53.9 0 0 1 -.861 8.478.5.5 0 0 1 -.492.409z"/><path d="m71.7 30.958a.5.5 0 0 1 -.5-.48l-.025-.753a.5.5 0 0 1 .483-.516.48.48 0 0 1 .516.483l.025.748a.5.5 0 0 1 -.48.519z"/><path d="m21.809 73.687h-.942a11.78 11.78 0 0 1 -8.628-3.723.5.5 0 1 1 .726-.687 10.792 10.792 0 0 0 7.9 3.41h.942a.5.5 0 0 1 0 1z"/><path d="m26.309 73.687h-1.25a.5.5 0 0 1 0-1h1.25a.5.5 0 0 1 0 1z"/><path d="m57.143 61.694h-29.354a.5.5 0 0 1 -.267-.077c-8.133-5.133-11.922-16.161-11.922-34.708 0-1.633.082-3.333.243-5.055a.5.5 0 0 1 .5-.453h52.25a.5.5 0 0 1 .5.453c.161 1.718.243 3.418.243 5.055 0 18.547-3.788 29.576-11.922 34.708a.5.5 0 0 1 -.271.077zm-29.208-1h29.065c7.731-4.967 11.334-15.709 11.334-33.786 0-1.461-.066-2.976-.2-4.508h-51.334c-.131 1.535-.2 3.049-.2 4.508 0 18.077 3.6 28.82 11.335 33.786z"/></g><path d="m25 52.4a.826.826 0 0 1 -1.13-.27c-1.83-2.97-2.25-4.61-3.17-8.9a.824.824 0 1 1 1.61-.35c.88 4.09 1.27 5.64 2.96 8.38a.828.828 0 0 1 -.27 1.14z" fill="#fff"/><path d="m21.02 40.74a.811.811 0 0 1 -.81-.7c-.04-.26-.05-.34-.06-.43a2.617 2.617 0 0 0 -.04-.36.827.827 0 0 1 1.64-.21c.03.21.03.3.04.37s.01.15.05.39a.823.823 0 0 1 -.16.61.784.784 0 0 1 -.54.32.487.487 0 0 1 -.12.01z" fill="#fff"/><path d="m64.065 70.687h-43.2a8.941 8.941 0 0 1 -8.931-8.931v-.562a.5.5 0 0 1 .5-.5h60.066a.5.5 0 0 1 .5.5v.562a8.941 8.941 0 0 1 -8.935 8.931zm-51.129-8.993v.062a7.94 7.94 0 0 0 7.931 7.931h43.2a7.94 7.94 0 0 0 7.933-7.931v-.062z" fill="#323c6b"/></svg>